<?xml version="1.0" encoding="UTF-8" standalone="no"?>
<!-- Created with Inkscape (http://www.inkscape.org/) -->

<svg
   width="57.573135mm"
   height="7.9163079mm"
   viewBox="0 0 57.573135 7.9163079"
   version="1.1"
   id="svg5"
   inkscape:version="1.1.2 (0a00cf5339, 2022-02-04, custom)"
   sodipodi:docname="logo.svg"
   xmlns:inkscape="http://www.inkscape.org/namespaces/inkscape"
   xmlns:sodipodi="http://sodipodi.sourceforge.net/DTD/sodipodi-0.dtd"
   xmlns="http://www.w3.org/2000/svg"
   xmlns:svg="http://www.w3.org/2000/svg">
  <sodipodi:namedview
     id="namedview7"
     pagecolor="#505050"
     bordercolor="#eeeeee"
     borderopacity="1"
     inkscape:pageshadow="0"
     inkscape:pageopacity="0"
     inkscape:pagecheckerboard="0"
     inkscape:document-units="mm"
     showgrid="false"
     inkscape:zoom="0.75633418"
     inkscape:cx="396.65007"
     inkscape:cy="561.25984"
     inkscape:window-width="1920"
     inkscape:window-height="1052"
     inkscape:window-x="0"
     inkscape:window-y="0"
     inkscape:window-maximized="1"
     inkscape:current-layer="layer1" />
  <defs
     id="defs2" />
  <g
     inkscape:label="Layer 1"
     inkscape:groupmode="layer"
     id="layer1">
    <g
       aria-label="Sander de Laat"
       id="text3340"
       style="font-size:10.5833px;line-height:1.25;font-family:Z003;-inkscape-font-specification:Z003;fill:#d80282;stroke-width:0.264583">
      <path
         d="M 0.46566518,6.0853971 0,7.1860602 c 0.37041549,0.4974151 0.85724727,0.7302477 1.555745,0.7302477 1.6192449,0 3.2067398,-1.3123292 3.2067398,-2.6669915 0,-0.4339153 -0.1587495,-0.6561646 -0.9524969,-1.269996 C 3.037407,3.3760724 2.9104074,3.1961563 2.9104074,2.7410744 c 0,-0.6984978 0.5185817,-1.2805793 1.1429964,-1.2805793 0.4444985,0 0.603248,0.1904994 0.7196643,0.8678306 L 5.4715659,1.8309106 C 5.4080661,1.2594124 5.0905671,0.96308004 4.5296522,0.96308004 c -1.0900798,0 -2.3283259,1.19591286 -2.3283259,2.25424286 0,0.4868317 0.211666,0.814914 0.8360807,1.3017458 0.7196644,0.5714982 0.9101638,0.8572473 0.9101638,1.3440791 0,0.8360806 -0.7937475,1.555745 -1.7144946,1.555745 -0.4550819,0 -0.920747,-0.2010827 -1.2064961,-0.5185817 C 0.80433077,6.6568952 0.71966438,6.434646 0.63499798,5.9689808 Z"
         id="path15862" />
      <path
         d="m 9.8742183,5.7784814 c -0.7725809,0.529165 -0.9524969,0.634998 -1.0583299,0.634998 -0.074083,0 -0.1269996,-0.084666 -0.1269996,-0.211666 0,-0.2857491 0.2434159,-1.3969956 0.6349979,-2.8469076 C 9.440303,3.185573 9.4614696,3.1644064 9.6308024,2.973907 9.122804,2.8574907 8.7629719,2.8151575 8.2973067,2.8151575 c -0.4339153,0 -0.6455813,0.042333 -0.9101638,0.211666 C 7.0061441,3.2490728 6.5616455,3.5771551 6.4240626,3.7253212 6.0218973,4.1698198 5.587982,5.5985653 5.587982,6.4558126 c 0,0.5079983 0.1693328,0.8466639 0.4339153,0.8466639 0.2328325,0 0.5820814,-0.211666 1.9049939,-1.1641629 -0.1164163,0.5397482 -0.1587495,0.8043307 -0.1587495,0.9419136 0,0.1481662 0.0635,0.2222493 0.1693328,0.2222493 0.1375829,0 0.2222493,-0.042333 0.9736636,-0.5397483 C 9.2709702,6.5193123 9.4720529,6.3817295 9.863635,6.0959804 Z M 8.0115576,5.7043983 C 7.6411421,5.9795641 7.4506427,6.117147 7.4400594,6.1277303 7.0908105,6.3499796 6.8156447,6.4875625 6.6780618,6.4875625 c -0.1799161,0 -0.2751658,-0.1904994 -0.2751658,-0.529165 0,-0.5397483 0.1587495,-1.2382461 0.4339153,-1.8520775 0.2539992,-0.5820814 0.4868318,-0.8043307 0.846664,-0.8043307 0.1904994,0 0.5503316,0.052917 0.8995805,0.1375829 -0.211666,0.7619975 -0.2857491,1.0477466 -0.2963324,1.1006631 -0.0635,0.2645825 -0.1164163,0.529165 -0.1799161,0.8043308 -0.010583,0.052917 -0.042333,0.1799161 -0.09525,0.3598322 z"
         id="path15864" />
      <path
         d="M 10.847883,6.9638109 11.472298,4.4767355 11.73688,4.3074027 c 0.984247,-0.6138314 1.100663,-0.6773312 1.248829,-0.6773312 0.0635,0 0.105833,0.052916 0.105833,0.1375829 0,0.1693328 -0.07408,0.4762485 -0.391582,1.7674111 -0.232832,0.9313304 -0.275165,1.1218297 -0.275165,1.3229124 0,0.1481662 0.04233,0.2751658 0.158749,0.4762485 0.476248,-0.211666 1.217079,-0.6773312 1.95791,-1.2276627 l 0.07408,-0.2963324 c -1.026581,0.5926648 -1.100664,0.6244147 -1.206497,0.6244147 -0.105833,0 -0.169332,-0.105833 -0.169332,-0.2857491 0,-0.2857491 0.04233,-0.4656652 0.507998,-2.1484099 0.264582,-0.9419136 0.264582,-0.9419136 0.264582,-1.0054134 0,-0.1164163 -0.07408,-0.1799161 -0.201082,-0.1799161 -0.232833,0 -0.264583,0.021167 -1.407579,0.7196644 -0.423332,0.2645824 -0.698498,0.4339152 -0.825497,0.5185816 0.105833,-0.3704155 0.253999,-1.0159967 0.253999,-1.1006631 0,-0.084666 -0.05292,-0.1375829 -0.137583,-0.1375829 -0.116416,0 -0.836081,0.3704155 -1.661578,0.8572472 l -0.0635,0.2751658 c 0.677331,-0.3069157 0.719664,-0.317499 0.814914,-0.317499 0.07408,0 0.127,0.0635 0.127,0.1481662 0,0.2328326 -0.1905,1.0794966 -0.465666,2.0637435 l -0.243415,0.8572472 c -0.02117,0.074083 -0.07408,0.2751658 -0.148167,0.5714982 z"
         id="path15866" />
      <path
         d="m 19.24043,5.7784814 -0.296333,0.1904994 c -0.264582,0.1799161 -0.444498,0.3069157 -0.497415,0.3386656 -0.222249,0.1375829 -0.423332,0.2328325 -0.476248,0.2328325 -0.08467,0 -0.148166,-0.1164162 -0.148166,-0.2751657 0,-0.3492489 0.878413,-4.1804034 1.111246,-4.836568 0.232833,-0.63499795 0.465665,-0.87841385 0.846664,-0.87841385 0.148166,0 0.243416,0.0211666 0.486832,0.0846664 L 20.637425,0.04233297 C 20.478676,0.01058307 20.404593,-2.2697449e-7 20.29876,-2.2697449e-7 c -0.254,0 -0.402166,0.0423331969745 -0.634998,0.17991609697449 -0.264583,0.14816619 -0.624415,0.42333198 -0.920747,0.69849777 -0.518582,0.49741506 -0.550332,0.57149816 -0.825498,1.66157806 -0.01058,0.042333 -0.04233,0.1904994 -0.08467,0.3386656 -0.1905,-0.042333 -0.338666,-0.0635 -0.433915,-0.0635 -0.328083,0 -1.238246,0.5714982 -1.661578,1.0371633 -0.359833,0.4127487 -0.836081,1.904994 -0.836081,2.6352417 0,0.4021653 0.211666,0.814914 0.402165,0.814914 0.201083,0 0.687915,-0.2963324 1.777995,-1.0900798 -0.05292,0.2857491 -0.08467,0.5609148 -0.08467,0.7619975 0,0.211666 0.07408,0.3280823 0.232833,0.3280823 0.169333,0 1.09008,-0.5609149 1.968494,-1.1959128 z m -2.074327,0.042333 c -0.89958,0.634998 -1.132413,0.7725808 -1.280579,0.7725808 -0.148166,0 -0.22225,-0.1481661 -0.22225,-0.4656651 0,-0.3492489 0.0635,-0.740831 0.1905,-1.2170795 0.296332,-1.0689133 0.719664,-1.5980782 1.259412,-1.5980782 0.201083,0 0.338666,0.074083 0.550332,0.285749 z"
         id="path15868" />
      <path
         d="m 22.658842,5.7149816 c -0.846664,0.7196644 -1.301746,0.9842468 -1.703911,0.9842468 -0.275166,0 -0.486832,-0.1799161 -0.560915,-0.4550818 -0.04233,-0.1693328 -0.05292,-0.2857491 -0.05292,-0.5926648 0.486832,-0.3069157 0.783164,-0.5185817 1.407579,-0.9842469 0.582082,-0.4339153 0.793748,-0.7831642 0.793748,-1.2594126 0,-0.3704155 -0.22225,-0.5926648 -0.603249,-0.5926648 -0.232832,0 -0.391582,0.052916 -0.645581,0.1904994 -0.402165,0.2328326 -0.761997,0.5185817 -0.973663,0.7725808 -0.402166,0.4868318 -0.761998,1.6509948 -0.761998,2.5082421 0,0.6244146 0.328082,1.0159967 0.867831,1.0159967 0.624414,0 1.428745,-0.4656652 2.222493,-1.2805792 z M 20.372849,5.270483 c 0.179916,-1.1429964 0.656165,-2.0108269 1.12183,-2.0108269 0.169333,0 0.285749,0.1693328 0.285749,0.4339152 0,0.529165 -0.306916,0.8678306 -1.407579,1.5769117 z"
         id="path15870" />
      <path
         d="M 23.188009,7.2707266 24.002923,6.9638109 24.79667,3.9475705 c 0.359832,-0.2751658 0.603248,-0.3704154 0.888997,-0.3704154 0.232833,0 0.370416,0.084666 0.560915,0.3280822 l 0.317499,-1.0054134 c -0.190499,-0.0635 -0.285749,-0.084666 -0.391582,-0.084666 -0.201082,0 -0.412748,0.09525 -0.698498,0.2963324 -0.137582,0.105833 -0.275165,0.211666 -0.423332,0.3069157 -0.0635,0.052917 -0.137582,0.105833 -0.201082,0.1481662 l 0.126999,-0.634998 c 0,-0.0635 -0.0635,-0.1164163 -0.137583,-0.1164163 -0.137582,0 -1.068913,0.4550819 -1.714494,0.8360806 l -0.03175,0.2857491 c 0.613831,-0.2963324 0.624415,-0.3069157 0.761998,-0.3069157 0.137583,0 0.201082,0.074083 0.201082,0.2222493 0,0.1481662 -0.105833,0.634998 -0.232832,1.1006632 z"
         id="path15872" />
      <path
         d="m 32.998711,5.7784814 -0.296332,0.1904994 c -0.264582,0.1799161 -0.444499,0.3069157 -0.497415,0.3386656 -0.222249,0.1375829 -0.423332,0.2328325 -0.476249,0.2328325 -0.08467,0 -0.148166,-0.1164162 -0.148166,-0.2751657 0,-0.3492489 0.878414,-4.1804034 1.111247,-4.836568 0.232832,-0.63499795 0.465665,-0.87841385 0.846664,-0.87841385 0.148166,0 0.243416,0.0211666 0.486831,0.0846664 L 34.395707,0.04233297 C 34.236957,0.01058307 34.162874,-2.2697449e-7 34.057041,-2.2697449e-7 33.803042,-2.2697449e-7 33.654876,0.04233297 33.422043,0.17991587 33.157461,0.32808206 32.797629,0.60324785 32.501296,0.87841364 31.982715,1.3758287 31.950965,1.4499118 31.675799,2.5399917 c -0.01058,0.042333 -0.04233,0.1904994 -0.08467,0.3386656 -0.1905,-0.042333 -0.338666,-0.0635 -0.433916,-0.0635 -0.328082,0 -1.238246,0.5714982 -1.661578,1.0371633 -0.359832,0.4127487 -0.83608,1.904994 -0.83608,2.6352417 0,0.4021653 0.211666,0.814914 0.402165,0.814914 0.201083,0 0.687914,-0.2963324 1.777994,-1.0900798 -0.05292,0.2857491 -0.08467,0.5609148 -0.08467,0.7619975 0,0.211666 0.07408,0.3280823 0.232832,0.3280823 0.169333,0 1.09008,-0.5609149 1.968494,-1.1959128 z m -2.074326,0.042333 c -0.899581,0.634998 -1.132413,0.7725808 -1.28058,0.7725808 -0.148166,0 -0.222249,-0.1481661 -0.222249,-0.4656651 0,-0.3492489 0.0635,-0.740831 0.1905,-1.2170795 0.296332,-1.0689133 0.719664,-1.5980782 1.259412,-1.5980782 0.201083,0 0.338666,0.074083 0.550332,0.285749 z"
         id="path15874" />
      <path
         d="m 36.417124,5.7149816 c -0.846664,0.7196644 -1.301746,0.9842468 -1.703912,0.9842468 -0.275166,0 -0.486831,-0.1799161 -0.560915,-0.4550818 -0.04233,-0.1693328 -0.05292,-0.2857491 -0.05292,-0.5926648 0.486832,-0.3069157 0.783164,-0.5185817 1.407579,-0.9842469 0.582081,-0.4339153 0.793747,-0.7831642 0.793747,-1.2594126 0,-0.3704155 -0.222249,-0.5926648 -0.603248,-0.5926648 -0.232832,0 -0.391582,0.052916 -0.645581,0.1904994 -0.402166,0.2328326 -0.761998,0.5185817 -0.973664,0.7725808 -0.402165,0.4868318 -0.761997,1.6509948 -0.761997,2.5082421 0,0.6244146 0.328082,1.0159967 0.86783,1.0159967 0.624415,0 1.428746,-0.4656652 2.222493,-1.2805792 z M 34.131131,5.270483 c 0.179916,-1.1429964 0.656164,-2.0108269 1.12183,-2.0108269 0.169332,0 0.285749,0.1693328 0.285749,0.4339152 0,0.529165 -0.306916,0.8678306 -1.407579,1.5769117 z"
         id="path15876" />
      <path
         d="m 43.952428,1.0900796 c -0.211666,-0.021167 -0.306915,-0.03175 -0.465665,-0.03175 -0.201082,0 -0.391582,0.021167 -0.560915,0.0635 -0.285749,0.074083 -0.793747,0.4339153 -1.217079,0.8572473 -0.518582,0.529165 -0.698498,1.0265801 -1.111247,2.9844905 -0.285749,1.3546624 -0.560914,1.7462444 -1.227662,1.7462444 -0.07408,0 -0.211666,0 -0.328083,-0.010583 -0.148166,0.1481662 -0.211666,0.2222493 -0.370415,0.423332 0.486832,-0.021167 0.740831,-0.03175 1.037163,-0.03175 0.285749,0 0.836081,0.021167 1.619245,0.052917 1.714495,0.084666 1.777994,0.084666 2.08491,0.084666 0.550332,0 0.783164,-0.1164163 0.973664,-0.5079984 0.126999,-0.2434158 0.455082,-0.9736635 0.613831,-1.3758289 L 44.883759,5.1434834 c -0.687915,1.449912 -0.804331,1.5134118 -2.624658,1.5028285 h -2.000244 c 0.709081,-0.6667478 0.751414,-0.7196643 0.888997,-1.02658 0.15875,-0.4127487 0.169333,-0.4550819 0.539748,-2.0425768 0.338666,-1.269996 0.338666,-1.2805793 0.433916,-1.4499121 0.179916,-0.3386656 0.402165,-0.4656652 0.793747,-0.4656652 0.148166,0 0.243416,0 0.624415,0.021167 z"
         id="path15878" />
      <path
         d="m 49.741491,5.7784814 c -0.772581,0.529165 -0.952497,0.634998 -1.05833,0.634998 -0.07408,0 -0.126999,-0.084666 -0.126999,-0.211666 0,-0.2857491 0.243416,-1.3969956 0.634998,-2.8469076 C 49.307576,3.185573 49.328742,3.1644064 49.498075,2.973907 48.990077,2.8574907 48.630245,2.8151575 48.16458,2.8151575 c -0.433916,0 -0.645582,0.042333 -0.910164,0.211666 -0.380999,0.2222493 -0.825498,0.5503316 -0.963081,0.6984977 -0.402165,0.4444986 -0.83608,1.8732441 -0.83608,2.7304914 0,0.5079983 0.169333,0.8466639 0.433915,0.8466639 0.232833,0 0.582082,-0.211666 1.904994,-1.1641629 -0.116416,0.5397482 -0.158749,0.8043307 -0.158749,0.9419136 0,0.1481662 0.0635,0.2222493 0.169332,0.2222493 0.137583,0 0.22225,-0.042333 0.973664,-0.5397483 0.359832,-0.2434159 0.560915,-0.3809987 0.952497,-0.6667478 z M 47.87883,5.7043983 c -0.370415,0.2751658 -0.560914,0.4127487 -0.571498,0.423332 -0.349249,0.2222493 -0.624414,0.3598322 -0.761997,0.3598322 -0.179916,0 -0.275166,-0.1904994 -0.275166,-0.529165 0,-0.5397483 0.158749,-1.2382461 0.433915,-1.8520775 0.253999,-0.5820814 0.486832,-0.8043307 0.846664,-0.8043307 0.1905,0 0.550332,0.052917 0.899581,0.1375829 -0.211666,0.7619975 -0.285749,1.0477466 -0.296333,1.1006631 -0.0635,0.2645825 -0.116416,0.529165 -0.179916,0.8043308 -0.01058,0.052917 -0.04233,0.1799161 -0.09525,0.3598322 z"
         id="path15880" />
      <path
         d="m 54.186476,5.7784814 c -0.772581,0.529165 -0.952497,0.634998 -1.05833,0.634998 -0.07408,0 -0.127,-0.084666 -0.127,-0.211666 0,-0.2857491 0.243416,-1.3969956 0.634998,-2.8469076 C 53.75256,3.185573 53.773727,3.1644064 53.94306,2.973907 53.435061,2.8574907 53.075229,2.8151575 52.609564,2.8151575 c -0.433915,0 -0.645581,0.042333 -0.910164,0.211666 -0.380999,0.2222493 -0.825497,0.5503316 -0.96308,0.6984977 -0.402165,0.4444986 -0.836081,1.8732441 -0.836081,2.7304914 0,0.5079983 0.169333,0.8466639 0.433916,0.8466639 0.232832,0 0.582081,-0.211666 1.904993,-1.1641629 -0.116416,0.5397482 -0.158749,0.8043307 -0.158749,0.9419136 0,0.1481662 0.0635,0.2222493 0.169333,0.2222493 0.137583,0 0.222249,-0.042333 0.973663,-0.5397483 0.359833,-0.2434159 0.560915,-0.3809987 0.952497,-0.6667478 z m -1.862661,-0.074083 c -0.370416,0.2751658 -0.560915,0.4127487 -0.571498,0.423332 -0.349249,0.2222493 -0.624415,0.3598322 -0.761998,0.3598322 -0.179916,0 -0.275166,-0.1904994 -0.275166,-0.529165 0,-0.5397483 0.15875,-1.2382461 0.433916,-1.8520775 0.253999,-0.5820814 0.486831,-0.8043307 0.846664,-0.8043307 0.190499,0 0.550331,0.052917 0.89958,0.1375829 -0.211666,0.7619975 -0.285749,1.0477466 -0.296332,1.1006631 -0.0635,0.2645825 -0.116417,0.529165 -0.179916,0.8043308 -0.01058,0.052917 -0.04233,0.1799161 -0.09525,0.3598322 z"
         id="path15882" />
      <path
         d="m 57.266218,5.8313979 c -0.804331,0.4868318 -1.142996,0.6561646 -1.291162,0.6561646 -0.137583,0 -0.306916,-0.2645825 -0.306916,-0.4974151 0,-0.1481662 0.01058,-0.1799161 0.243416,-1.1853296 0.05292,-0.1904994 0.09525,-0.3915821 0.137583,-0.5926648 0.01058,-0.03175 0.05292,-0.2010827 0.07408,-0.2963324 0.359832,-0.010583 0.687914,-0.03175 1.047747,-0.052916 l 0.402165,-0.3069156 h -1.354662 c 0.05292,-0.2434159 0.07408,-0.317499 0.105833,-0.4762485 0.03175,-0.105833 0.105833,-0.3915821 0.253999,-0.9630803 l 0.0635,-0.2751658 -0.179917,0.09525 c -0.0635,0.021167 -0.148166,0.0635 -0.264582,0.1164163 -0.07408,0.042333 -0.15875,0.074083 -0.243416,0.1164163 -0.04233,0.021167 -0.08467,0.042333 -0.148166,0.0635 l -0.09525,0.4339153 -0.116416,0.5079984 -0.08467,0.3809988 c -0.09525,0.010583 -0.158749,0.010583 -0.190499,0.010583 h -0.253999 c -0.02117,0 -0.07408,0 -0.15875,0.010583 -0.05292,0.03175 -0.09525,0.0635 -0.105833,0.0635 -0.03175,0.021167 -0.09525,0.074083 -0.201082,0.1587495 -0.02117,0.010583 -0.07408,0.0635 -0.15875,0.1164163 h 0.253999 0.486832 0.232833 l -0.105833,0.4656652 c -0.455082,1.8732441 -0.455082,1.8732441 -0.455082,2.2119096 0,0.3386656 0.222249,0.7090811 0.423332,0.7090811 0.232832,0 0.952497,-0.4339153 1.968494,-1.2064961 z"
         id="path15884" />
    </g>
  </g>
</svg>
